<svg width="94" height="94" viewBox="0 0 94 94" fill="none" xmlns="http://www.w3.org/2000/svg">
<path fill-rule="evenodd" clip-rule="evenodd" d="M19.5833 35.2501C19.5833 22.621 28.1221 11.9864 39.7416 8.80451C40.1317 7.84289 40.7129 6.95914 41.461 6.21109C42.9301 4.74203 44.9225 3.91675 46.9999 3.91675C49.0773 3.91675 51.0697 4.74203 52.5389 6.21109C53.287 6.95914 53.8682 7.84289 54.2583 8.80451C65.8779 11.9864 74.4166 22.621 74.4166 35.2501V51.0554C80.8677 51.0554 86.1666 56.2853 86.1666 62.7361C86.1666 69.1872 80.8677 74.4168 74.4166 74.4168H19.5833C13.1322 74.4168 7.83325 69.1872 7.83325 62.7361C7.83325 56.2853 13.1322 51.0554 19.5833 51.0554V35.2501ZM50.9166 27.4167C50.9166 25.2537 49.1631 23.5001 46.9999 23.5001C44.8367 23.5001 43.0833 25.2537 43.0833 27.4167V39.1668C43.0833 41.3299 44.8367 43.0834 46.9999 43.0834C49.1631 43.0834 50.9166 41.3299 50.9166 39.1668V27.4167ZM50.9166 54.8334C50.9166 56.9966 49.1631 58.7501 46.9999 58.7501C44.8367 58.7501 43.0833 56.9966 43.0833 54.8334C43.0833 52.6702 44.8367 50.9168 46.9999 50.9168C49.1631 50.9168 50.9166 52.6702 50.9166 54.8334ZM34.1593 83.3949C36.9923 87.4393 41.6874 90.0834 46.9999 90.0834C52.3125 90.0834 57.0074 87.4393 59.8403 83.3949C60.1866 82.9006 59.816 82.2501 59.2125 82.2501H34.7872C34.184 82.2501 33.8132 82.9006 34.1593 83.3949Z" fill="white"/>
</svg>
