<svg width="96" height="95" viewBox="0 0 96 95" fill="none" xmlns="http://www.w3.org/2000/svg">
<g clip-path="url(#clip0_19_167)">
<path d="M37.6459 1.22937C30.6983 1.22937 24.9929 6.65086 24.5378 13.4853C17.2812 14.6522 11.5246 20.3548 10.2703 27.5822H22.6461C24.933 27.5822 26.7868 25.7284 26.7868 23.4416V21.7709H32.3532V23.4416C32.3532 28.8027 28.0071 33.1486 22.6461 33.1486H9.66787C4.16659 35.7064 0.5 41.2936 0.5 47.4999C0.5 53.2411 3.63667 58.4543 8.46145 61.2282H13.3677C15.6545 61.2282 17.5083 59.3744 17.5083 57.0875V55.4167H23.0747V57.0875C23.0747 58.568 22.7404 59.9715 22.145 61.2282C27.7826 61.2282 32.353 65.7984 32.353 71.4362V72.6063H26.7866V71.4362C26.7866 68.8727 24.7085 66.7946 22.145 66.7946H10.1714C11.194 74.3159 17.0736 80.3143 24.5378 81.5146C24.9929 88.349 30.6983 93.7705 37.6459 93.7705C40.4638 93.7705 43.075 92.8758 45.2168 91.3595V3.64037C43.075 2.12408 40.4638 1.22937 37.6459 1.22937Z" fill="white"/>
<path d="M87.5385 33.7717H82.0146C79.7277 33.7717 77.8739 35.6255 77.8739 37.9124V39.5832H72.3075V37.9124C72.3075 36.4319 72.6419 35.0284 73.2373 33.7717C67.5996 33.7717 63.0292 29.2015 63.0292 23.5636V22.3936H68.5956V23.5636C68.5956 26.1272 70.6738 28.2053 73.2373 28.2053H85.8285C84.8059 20.684 78.9263 14.6856 71.4622 13.4853C71.0072 6.65086 65.3018 1.22937 58.354 1.22937C55.5361 1.22937 52.9247 2.12426 50.783 3.64037V91.3593C52.9247 92.8754 55.5359 93.7703 58.354 93.7703C65.3016 93.7703 71.007 88.3488 71.4622 81.5144C78.7187 80.3475 84.4753 74.6449 85.7296 67.4175H72.7363C70.4494 67.4175 68.5956 69.2713 68.5956 71.5581V73.2288H63.0292V71.5581C63.0292 66.1969 67.3753 61.8511 72.7363 61.8511H86.3319C91.8334 59.2935 95.5001 53.7063 95.5001 47.4999C95.5001 41.7586 92.3633 36.5454 87.5385 33.7717Z" fill="white"/>
</g>
<defs>
<clipPath id="clip0_19_167">
<rect width="95" height="95" fill="white" transform="translate(0.5)"/>
</clipPath>
</defs>
</svg>
