<svg width="24" height="17" viewBox="0 0 24 17" fill="none" xmlns="http://www.w3.org/2000/svg">
<path fill-rule="evenodd" clip-rule="evenodd" d="M3.636 10.003L4.488 3.17496C4.54932 2.68375 4.71128 2.21047 4.96377 1.78468C5.21626 1.35889 5.55385 0.989743 5.95544 0.700314C6.35704 0.410885 6.81401 0.207391 7.2978 0.102546C7.7816 -0.0022995 8.28181 -0.00624175 8.7672 0.0909647C9.7956 0.297365 10.9488 0.714965 12 0.714965C13.0512 0.714965 14.2044 0.297365 15.2328 0.0909647C15.7181 -0.00605715 16.2182 -0.00197438 16.7018 0.102958C17.1855 0.20789 17.6423 0.411417 18.0438 0.700828C18.4452 0.99024 18.7827 1.35932 19.0351 1.78501C19.2875 2.21071 19.4495 2.68388 19.5108 3.17496L20.3652 10.003C21.7284 10.3438 24 11.0038 24 12.7618C24 14.677 21.3444 15.3082 19.896 15.6298C17.8344 16.0882 15.0432 16.3618 12 16.3618C8.9568 16.3618 6.1656 16.0882 4.104 15.6298C2.6544 15.3082 0 14.677 0 12.7618C0 11.0038 2.2716 10.3438 3.636 10.003ZM4.6236 13.2874C3.8736 13.1206 3.2916 12.9394 2.8776 12.7618C3.2916 12.5842 3.8736 12.4018 4.6236 12.2362C6.4692 11.8258 9.078 11.5618 12 11.5618C14.922 11.5618 17.5308 11.8258 19.3764 12.2362C20.1264 12.403 20.7084 12.5842 21.1224 12.7618C20.7096 12.9394 20.1264 13.1206 19.3764 13.2874C17.5308 13.6978 14.922 13.9618 12 13.9618C9.078 13.9618 6.4692 13.6978 4.6236 13.2874Z" fill="#FF596D"/>
</svg>
