<svg width="70" height="95" viewBox="0 0 70 95" fill="none" xmlns="http://www.w3.org/2000/svg">
<path d="M64.1785 8.14286H66.8928C68.3925 8.14286 69.6071 6.92821 69.6071 5.42857V2.71429C69.6071 1.21464 68.3925 0 66.8928 0H3.10711C1.60746 0 0.392822 1.21464 0.392822 2.71429V5.42857C0.392822 6.92821 1.60746 8.14286 3.10711 8.14286H5.82139C5.82139 32.3 25.0779 33.2418 26.1785 47.5C25.0779 61.758 5.82139 62.7 5.82139 86.8571H3.10711C1.60746 86.8571 0.392822 88.0718 0.392822 89.5714V92.2857C0.392822 93.7854 1.60746 95 3.10711 95H66.8928C68.3925 95 69.6071 93.7854 69.6071 92.2857V89.5714C69.6071 88.0718 68.3925 86.8571 66.8928 86.8571H64.1785C64.1785 62.7 44.9223 61.758 43.8214 47.5C44.9221 33.2418 64.1785 32.3 64.1785 8.14286ZM55.9503 84.6043C56.5759 85.5 55.9257 86.7308 54.8318 86.7308H35H14.9562C13.9058 86.7308 13.2422 85.5798 13.7836 84.6803C19.0915 75.8671 25.5555 69.2522 34.0893 62.7828C34.6118 62.3865 35.3622 62.4272 35.8482 62.8682C44.5135 70.7493 50.6682 77.0396 55.9503 84.6043ZM34.8928 40.8744L20.4201 26.4507C20.4201 26.4507 27.6943 29.4093 33.6115 29.4093C39.5286 29.4093 44.5842 25.2171 49.0232 25.2171C53.4625 25.2171 34.8928 40.8744 34.8928 40.8744Z" fill="white"/>
</svg>
