<svg width="22" height="22" viewBox="0 0 22 22" fill="none" xmlns="http://www.w3.org/2000/svg">
<path d="M18.3333 0C19.3058 0 20.2384 0.386308 20.9261 1.07394C21.6137 1.76157 22 2.69421 22 3.66667V18.3333C22 19.3058 21.6137 20.2384 20.9261 20.9261C20.2384 21.6137 19.3058 22 18.3333 22H3.66667C2.69421 22 1.76157 21.6137 1.07394 20.9261C0.386308 20.2384 0 19.3058 0 18.3333V3.66667C0 2.69421 0.386308 1.76157 1.07394 1.07394C1.76157 0.386308 2.69421 0 3.66667 0H18.3333ZM14.6667 5.5H11V16.5H12.8333V12.859H14.6667C15.213 12.8352 18.3333 12.859 18.3333 9.15933C18.3333 5.96933 15.9243 5.58067 14.9875 5.5165L14.6667 5.5ZM7.33333 5.5H5.5V16.5H7.33333V5.5ZM14.6667 7.304C15.8889 7.304 16.5 7.92 16.5 9.152C16.5 10.384 15.8889 11 14.6667 11H12.8333V7.304H14.6667Z" fill="#05D5C7"/>
</svg>
