<svg width="20" height="22" viewBox="0 0 20 22" fill="none" xmlns="http://www.w3.org/2000/svg">
<path fill-rule="evenodd" clip-rule="evenodd" d="M2 10.3669C0.928889 10.3669 0.00311111 9.44423 0 8.23223L0.00177781 8.20423C0.00325929 8.17371 0.00888891 8.11668 0.0186667 8.03312C0.0391111 7.86468 0.0822222 7.58557 0.172444 7.1709C0.352889 6.34068 0.719556 4.97357 1.46356 2.87045C1.76933 2.00512 2.48222 1.40912 3.34356 1.31668C7.76877 0.847322 12.2312 0.847322 16.6564 1.31668C17.5178 1.40912 18.2307 2.00557 18.5364 2.87045C19.2804 4.97357 19.6476 6.34068 19.8276 7.1709C19.9178 7.58557 19.9609 7.86468 19.9813 8.03312C19.9897 8.09927 19.9959 8.16568 20 8.23223C19.9969 9.44423 19.0711 10.3669 18 10.3669C16.9271 10.3669 16 9.44112 16 8.22645C16 8.04964 15.9298 7.88007 15.8047 7.75505C15.6797 7.63003 15.5101 7.55979 15.3333 7.55979C15.1565 7.55979 14.987 7.63003 14.8619 7.75505C14.7369 7.88007 14.6667 8.04964 14.6667 8.22645C14.6667 9.44112 13.7396 10.3669 12.6667 10.3669C11.5938 10.3669 10.6667 9.44112 10.6667 8.22645C10.6667 8.04964 10.5964 7.88007 10.4714 7.75505C10.3464 7.63003 10.1768 7.55979 10 7.55979C9.82319 7.55979 9.65362 7.63003 9.52859 7.75505C9.40357 7.88007 9.33333 8.04964 9.33333 8.22645C9.33333 9.44112 8.40622 10.3669 7.33333 10.3669C6.26044 10.3669 5.33333 9.44112 5.33333 8.22645C5.33333 8.04964 5.2631 7.88007 5.13807 7.75505C5.01305 7.63003 4.84348 7.55979 4.66667 7.55979C4.48986 7.55979 4.32029 7.63003 4.19526 7.75505C4.07024 7.88007 4 8.04964 4 8.22645C4 9.44112 3.07289 10.3669 2 10.3669ZM0.855111 11.4931V13.702C0.855111 15.6962 0.935111 17.1896 1.02533 18.2371C1.15156 19.7073 2.31867 20.7851 3.76311 20.8736C5.08356 20.9545 7.11689 21.0353 9.96622 21.0353C12.8151 21.0353 14.8489 20.9545 16.1693 20.8736C17.6138 20.7847 18.7809 19.7073 18.9071 18.2371C18.9973 17.1896 19.0773 15.6962 19.0773 13.702V11.518C18.7315 11.6408 18.367 11.7032 18 11.7025C16.8964 11.7025 15.9364 11.1513 15.3333 10.3122C14.7307 11.1509 13.7702 11.7025 12.6667 11.7025C11.5631 11.7025 10.6031 11.1513 10 10.3122C9.39733 11.1509 8.43689 11.7025 7.33333 11.7025C6.22978 11.7025 5.26978 11.1513 4.66667 10.3122C4.064 11.1509 3.10356 11.7025 2 11.7025C1.60878 11.7032 1.22074 11.6323 0.855111 11.4931ZM9.96622 14.3687C8.93378 14.3687 8.22 14.4442 7.744 14.5296C7.42133 14.5873 7.17422 14.854 7.148 15.3207C7.11111 15.9798 7.07733 17.0153 7.07733 18.5909C7.07733 18.9465 7.36178 19.2336 7.708 19.2393C8.39304 19.2512 9.14578 19.2573 9.96622 19.2576C10.787 19.2573 11.5397 19.2512 12.2244 19.2393C12.3935 19.2352 12.5541 19.1649 12.672 19.0437C12.7899 18.9225 12.8556 18.76 12.8551 18.5909C12.8551 17.0153 12.8213 15.9798 12.7844 15.3207C12.7587 14.854 12.5111 14.5873 12.1889 14.5296C11.7124 14.4442 10.9987 14.3687 9.96622 14.3687Z" fill="#FD996C"/>
</svg>
