<svg width="59" height="95" viewBox="0 0 59 95" fill="none" xmlns="http://www.w3.org/2000/svg">
<path d="M43.7285 39.1883C41.4041 38.9621 39.0582 39.2234 36.8406 39.9556C34.623 40.6878 32.5827 41.8748 30.8501 43.4406C29.1175 45.0064 27.7307 46.9166 26.7785 49.049C25.8264 51.1813 25.3297 53.489 25.3203 55.8243C26.2733 78.0277 57.8397 78.0277 58.776 55.8243C58.7682 51.6817 57.2259 47.6889 54.447 44.6166C51.6681 41.5444 47.8495 39.6105 43.7285 39.1883ZM50.7507 51.9453L40.719 61.977C40.5664 62.1356 40.3833 62.2617 40.1807 62.3479C39.9782 62.4341 39.7604 62.4785 39.5402 62.4785C39.3201 62.4785 39.1023 62.4341 38.8997 62.3479C38.6972 62.2617 38.5141 62.1356 38.3615 61.977L33.3456 56.9612C33.1895 56.8067 33.0654 56.6228 32.9806 56.4202C32.8957 56.2176 32.8517 56.0003 32.8512 55.7806C32.8506 55.5609 32.8934 55.3433 32.9772 55.1403C33.061 54.9373 33.1841 54.7528 33.3394 54.5975C33.4948 54.4421 33.6793 54.3191 33.8823 54.2353C34.0854 54.1515 34.303 54.1087 34.5226 54.1093C34.7423 54.1099 34.9597 54.1538 35.1623 54.2387C35.3648 54.3236 35.5487 54.4477 35.7032 54.6038L39.5319 58.4324L48.3932 49.5878C48.7078 49.285 49.1287 49.1176 49.5654 49.1217C50.0021 49.1259 50.4197 49.3012 50.7285 49.61C51.0373 49.9188 51.2126 50.3364 51.2168 50.7731C51.2209 51.2098 51.0536 51.6307 50.7507 51.9453Z" fill="white"/>
<path d="M43.7285 35.8444C43.7786 33.2027 43.8455 25.0603 42.0566 22.9202L35.352 14.0087C34.1203 12.3802 32.3369 11.2567 30.3361 10.8487V7.32094C30.3216 5.55674 29.6106 3.86974 28.358 2.62736C27.1054 1.38497 25.4126 0.687866 23.6483 0.687866C21.884 0.687866 20.1913 1.38497 18.9386 2.62736C17.686 3.86974 16.975 5.55674 16.9605 7.32094V17.3527C16.9604 17.7919 17.0468 18.2267 17.2148 18.6325C17.3829 19.0382 17.6292 19.4069 17.9397 19.7174C18.2502 20.0279 18.6189 20.2742 19.0247 20.4422C19.4304 20.6102 19.8653 20.6966 20.3044 20.6965C20.7417 20.7059 21.1578 20.8861 21.4637 21.1987C21.7696 21.5112 21.9409 21.9311 21.9409 22.3684C21.9409 22.8057 21.7696 23.2257 21.4637 23.5382C21.1578 23.8507 20.7417 24.031 20.3044 24.0404C19.4261 24.0406 18.5564 23.8678 17.7449 23.5318C16.9334 23.1958 16.196 22.7032 15.5749 22.0822C14.9539 21.4611 14.4613 20.7238 14.1252 19.9123C13.7892 19.1008 13.6164 18.231 13.6166 17.3527V10.8487C11.6135 11.2622 9.82669 12.3841 8.58407 14.0087L1.89627 22.9202C0.806869 24.3715 0.21996 26.1382 0.22439 27.9528V85.9527C0.22521 88.1696 1.10622 90.2955 2.67378 91.863C4.24135 93.4306 6.36719 94.3116 8.58407 94.3125H35.352C36.451 94.3138 37.5394 94.0986 38.5552 93.6792C39.571 93.2597 40.4942 92.6443 41.2721 91.8679C42.0499 91.0916 42.6672 90.1696 43.0887 89.1547C43.5102 88.1398 43.7276 87.0517 43.7285 85.9527V75.8206C15.1609 77.5549 15.2268 34.0783 43.7285 35.8444ZM20.3044 10.6648V7.32094C20.3167 6.44217 20.6744 5.60355 21.3002 4.98646C21.926 4.36937 22.7695 4.02342 23.6483 4.02342C24.5272 4.02342 25.3707 4.36937 25.9965 4.98646C26.6223 5.60355 26.98 6.44217 26.9922 7.32094V10.6648H20.3044ZM35.352 84.2808H8.58407C8.1461 84.2693 7.72994 84.0872 7.42426 83.7733C7.11857 83.4595 6.94751 83.0386 6.94751 82.6005C6.94751 82.1624 7.11857 81.7416 7.42426 81.4277C7.72994 81.1139 8.1461 80.9318 8.58407 80.9202H35.352C35.7919 80.9289 36.2108 81.1097 36.5189 81.4239C36.8269 81.7381 36.9995 82.1605 36.9995 82.6005C36.9995 83.0405 36.8269 83.4629 36.5189 83.7771C36.2108 84.0913 35.7919 84.2722 35.352 84.2808Z" fill="white"/>
</svg>
