<svg width="33" height="33" viewBox="0 0 33 33" fill="none" xmlns="http://www.w3.org/2000/svg">
<path d="M20.8501 7.577C22.0671 10.26 23.5601 13.552 24.6801 14.86C24.9001 14.352 24.8761 13.5 25.1261 11.42C25.3521 9.544 26.9001 9.365 27.5651 9.498C29.0351 9.805 29.4821 11.294 29.4331 11.843C29.3551 12.718 29.3511 12.688 29.1911 14.805C28.9561 17.9 30.1511 20.237 30.2611 22.887C30.2611 27.881 25.8841 30.335 22.8211 30.335C20.3701 30.335 17.9171 28.767 16.9981 27.983L12.4021 23.785C11.8401 23.348 10.4491 21.904 9.83906 21.073C8.17506 18.81 10.5811 17.251 11.9331 17.643C11.8271 17.561 11.1851 16.519 10.8781 16.009C10.0531 14.352 10.8781 13.249 11.4881 12.945C12.8711 12.257 13.8881 13.031 14.2081 13.453C14.0851 13.245 13.7011 12.403 13.0821 10.858C12.4631 9.314 13.4601 8.36 14.0361 8.076C15.2861 7.497 16.4741 8.232 16.7711 8.889C16.9171 9.21 17.7011 10.929 18.0431 11.686C17.7851 11.058 17.3191 9.809 17.1541 9.232C16.8261 7.872 17.6151 6.94 18.1161 6.7C18.8111 6.367 20.2621 6.28 20.8361 7.544L20.8501 7.577Z" fill="url(#paint0_radial_112_11353)"/>
<path d="M20.8485 7.577C22.0655 10.26 23.5585 13.552 24.6785 14.86C24.8985 14.352 24.8745 13.5 25.1245 11.42C25.3505 9.544 26.8985 9.365 27.5635 9.498C29.0335 9.805 29.4805 11.294 29.4315 11.843C29.3535 12.718 29.3495 12.688 29.1895 14.805C28.9545 17.9 30.1495 20.237 30.2595 22.887C30.2595 27.881 25.8825 30.335 22.8195 30.335C20.3685 30.335 17.9155 28.767 16.9965 27.983L12.4005 23.785C11.8375 23.348 10.4475 21.904 9.83655 21.073C8.17355 18.81 10.5795 17.251 11.9315 17.643C11.8255 17.561 11.1835 16.519 10.8765 16.009C10.0515 14.352 10.8765 13.249 11.4865 12.945C12.8695 12.257 13.8865 13.031 14.2065 13.453C14.0835 13.245 13.6995 12.403 13.0805 10.858C12.4615 9.314 13.4585 8.36 14.0345 8.076C15.2845 7.497 16.4725 8.232 16.7695 8.889C16.9155 9.21 17.6995 10.929 18.0415 11.686C17.7835 11.058 17.3175 9.809 17.1525 9.232C16.8245 7.872 17.6135 6.94 18.1135 6.7C18.8095 6.367 20.2605 6.28 20.8335 7.544L20.8485 7.577Z" fill="url(#paint1_radial_112_11353)"/>
<path d="M29.4317 11.843C29.3537 12.718 29.3497 12.688 29.1897 14.805C29.1067 15.899 29.7007 19.926 29.7007 19.926C28.2557 20.398 25.1247 19.773 24.6797 14.86C24.8987 14.352 24.8747 13.5 25.1247 11.42C25.3507 9.544 26.8987 9.365 27.5637 9.498C29.0337 9.805 29.4807 11.294 29.4317 11.843Z" fill="url(#paint2_radial_112_11353)"/>
<path d="M29.4317 11.843C29.3537 12.718 29.3497 12.688 29.1897 14.805C29.1067 15.899 29.7007 19.926 29.7007 19.926C28.2557 20.398 25.1247 19.773 24.6797 14.86C24.8987 14.352 24.8747 13.5 25.1247 11.42C25.3507 9.544 26.8987 9.365 27.5637 9.498C29.0337 9.805 29.4807 11.294 29.4317 11.843Z" fill="url(#paint3_radial_112_11353)"/>
<path d="M29.4317 11.843C29.3537 12.718 29.3497 12.688 29.1897 14.805C29.1067 15.899 29.7007 19.926 29.7007 19.926C28.2557 20.398 25.1247 19.773 24.6797 14.86C24.8987 14.352 24.8747 13.5 25.1247 11.42C25.3507 9.544 26.8987 9.365 27.5637 9.498C29.0337 9.805 29.4807 11.294 29.4317 11.843Z" fill="url(#paint4_radial_112_11353)"/>
<path d="M20.8496 7.577C22.0666 10.26 23.5596 13.552 24.6796 14.86C24.5046 16.356 23.1676 17.072 22.0156 16.804C20.5626 16.382 20.0106 15.351 20.0106 15.351C20.0106 15.351 19.6306 14.763 19.2606 14.116C18.8326 13.368 18.9106 13.385 18.1936 12.031C18.0526 11.765 17.3626 9.961 17.1536 9.232C16.8256 7.872 17.6146 6.94 18.1156 6.7C18.8106 6.367 20.2616 6.28 20.8356 7.544L20.8496 7.577Z" fill="url(#paint5_radial_112_11353)"/>
<path d="M20.8496 7.577C22.0666 10.26 23.5596 13.552 24.6796 14.86C24.5046 16.356 23.1676 17.072 22.0156 16.804C20.5626 16.382 20.0106 15.351 20.0106 15.351C20.0106 15.351 19.6306 14.763 19.2606 14.116C18.8326 13.368 18.9106 13.385 18.1936 12.031C18.0526 11.765 17.3626 9.961 17.1536 9.232C16.8256 7.872 17.6146 6.94 18.1156 6.7C18.8106 6.367 20.2616 6.28 20.8356 7.544L20.8496 7.577Z" fill="url(#paint6_linear_112_11353)"/>
<path d="M20.8496 7.577C22.0666 10.26 23.5596 13.552 24.6796 14.86C24.5046 16.356 23.1676 17.072 22.0156 16.804C20.5626 16.382 20.0106 15.351 20.0106 15.351C20.0106 15.351 19.6306 14.763 19.2606 14.116C18.8326 13.368 18.9106 13.385 18.1936 12.031C18.0526 11.765 17.3626 9.961 17.1536 9.232C16.8256 7.872 17.6146 6.94 18.1156 6.7C18.8106 6.367 20.2616 6.28 20.8356 7.544L20.8496 7.577Z" fill="url(#paint7_radial_112_11353)"/>
<path d="M20.8496 7.577C22.0666 10.26 23.5596 13.552 24.6796 14.86C24.5046 16.356 23.1676 17.072 22.0156 16.804C20.5626 16.382 20.0106 15.351 20.0106 15.351C20.0106 15.351 19.6306 14.763 19.2606 14.116C18.8326 13.368 18.9106 13.385 18.1936 12.031C18.0526 11.765 17.3626 9.961 17.1536 9.232C16.8256 7.872 17.6146 6.94 18.1156 6.7C18.8106 6.367 20.2616 6.28 20.8356 7.544L20.8496 7.577Z" fill="url(#paint8_radial_112_11353)"/>
<path d="M20.8496 7.577C22.0666 10.26 23.5596 13.552 24.6796 14.86C24.5046 16.356 23.1676 17.072 22.0156 16.804C20.5626 16.382 20.0106 15.351 20.0106 15.351C20.0106 15.351 19.6306 14.763 19.2606 14.116C18.8326 13.368 18.9106 13.385 18.1936 12.031C18.0526 11.765 17.3626 9.961 17.1536 9.232C16.8256 7.872 17.6146 6.94 18.1156 6.7C18.8106 6.367 20.2616 6.28 20.8356 7.544L20.8496 7.577Z" fill="url(#paint9_linear_112_11353)"/>
<path d="M16.7701 8.88901C16.9661 9.32101 18.3181 12.281 18.1931 12.031C18.5561 12.851 19.6831 14.851 20.0101 15.398C20.7341 16.604 19.9171 17.607 19.3901 17.913C17.8731 18.793 17.0021 17.671 17.0021 17.671C16.2021 16.499 15.5341 15.523 14.2131 13.445C13.8951 12.845 13.3151 11.507 13.0811 10.858C12.5041 9.25601 13.4591 8.36001 14.0351 8.07601C15.2851 7.49701 16.4731 8.23201 16.7701 8.88901Z" fill="url(#paint10_radial_112_11353)"/>
<path d="M16.7701 8.88901C16.9661 9.32101 18.3181 12.281 18.1931 12.031C18.5561 12.851 19.6831 14.851 20.0101 15.398C20.7341 16.604 19.9171 17.607 19.3901 17.913C17.8731 18.793 17.0021 17.671 17.0021 17.671C16.2021 16.499 15.5341 15.523 14.2131 13.445C13.8951 12.845 13.3151 11.507 13.0811 10.858C12.5041 9.25601 13.4591 8.36001 14.0351 8.07601C15.2851 7.49701 16.4731 8.23201 16.7701 8.88901Z" fill="url(#paint11_linear_112_11353)"/>
<path d="M16.7701 8.88901C16.9661 9.32101 18.3181 12.281 18.1931 12.031C18.5561 12.851 19.6831 14.851 20.0101 15.398C20.7341 16.604 19.9171 17.607 19.3901 17.913C17.8731 18.793 17.0021 17.671 17.0021 17.671C16.2021 16.499 15.5341 15.523 14.2131 13.445C13.8951 12.845 13.3151 11.507 13.0811 10.858C12.5041 9.25601 13.4591 8.36001 14.0351 8.07601C15.2851 7.49701 16.4731 8.23201 16.7701 8.88901Z" fill="url(#paint12_radial_112_11353)"/>
<path d="M16.7701 8.88901C16.9661 9.32101 18.3181 12.281 18.1931 12.031C18.5561 12.851 19.6831 14.851 20.0101 15.398C20.7341 16.604 19.9171 17.607 19.3901 17.913C17.8731 18.793 17.0021 17.671 17.0021 17.671C16.2021 16.499 15.5341 15.523 14.2131 13.445C13.8951 12.845 13.3151 11.507 13.0811 10.858C12.5041 9.25601 13.4591 8.36001 14.0351 8.07601C15.2851 7.49701 16.4731 8.23201 16.7701 8.88901Z" fill="url(#paint13_radial_112_11353)"/>
<path d="M16.7701 8.88901C16.9661 9.32101 18.3181 12.281 18.1931 12.031C18.5561 12.851 19.6831 14.851 20.0101 15.398C20.7341 16.604 19.9171 17.607 19.3901 17.913C17.8731 18.793 17.0021 17.671 17.0021 17.671C16.2021 16.499 15.5341 15.523 14.2131 13.445C13.8951 12.845 13.3151 11.507 13.0811 10.858C12.5041 9.25601 13.4591 8.36001 14.0351 8.07601C15.2851 7.49701 16.4731 8.23201 16.7701 8.88901Z" fill="url(#paint14_radial_112_11353)"/>
<path d="M16.7701 8.88901C16.9661 9.32101 18.3181 12.281 18.1931 12.031C18.5561 12.851 19.6831 14.851 20.0101 15.398C20.7341 16.604 19.9171 17.607 19.3901 17.913C17.8731 18.793 17.0021 17.671 17.0021 17.671C16.2021 16.499 15.5341 15.523 14.2131 13.445C13.8951 12.845 13.3151 11.507 13.0811 10.858C12.5041 9.25601 13.4591 8.36001 14.0351 8.07601C15.2851 7.49701 16.4731 8.23201 16.7701 8.88901Z" fill="url(#paint15_linear_112_11353)"/>
<path d="M11.4867 12.945C12.8697 12.257 13.8867 13.031 14.2067 13.453C15.2057 14.96 16.3967 16.673 16.9467 17.585C18.4167 20.015 15.4087 21.069 15.4087 21.069C12.6427 17.952 12.1307 17.795 11.9317 17.642C11.8257 17.561 11.1837 16.519 10.8767 16.009C10.0517 14.352 10.8767 13.248 11.4867 12.945Z" fill="url(#paint16_radial_112_11353)"/>
<path d="M11.4867 12.945C12.8697 12.257 13.8867 13.031 14.2067 13.453C15.2057 14.96 16.3967 16.673 16.9467 17.585C18.4167 20.015 15.4087 21.069 15.4087 21.069C12.6427 17.952 12.1307 17.795 11.9317 17.642C11.8257 17.561 11.1837 16.519 10.8767 16.009C10.0517 14.352 10.8767 13.248 11.4867 12.945Z" fill="url(#paint17_linear_112_11353)"/>
<path d="M11.4867 12.945C12.8697 12.257 13.8867 13.031 14.2067 13.453C15.2057 14.96 16.3967 16.673 16.9467 17.585C18.4167 20.015 15.4087 21.069 15.4087 21.069C12.6427 17.952 12.1307 17.795 11.9317 17.642C11.8257 17.561 11.1837 16.519 10.8767 16.009C10.0517 14.352 10.8767 13.248 11.4867 12.945Z" fill="url(#paint18_radial_112_11353)"/>
<path d="M11.4867 12.945C12.8697 12.257 13.8867 13.031 14.2067 13.453C15.2057 14.96 16.3967 16.673 16.9467 17.585C18.4167 20.015 15.4087 21.069 15.4087 21.069C12.6427 17.952 12.1307 17.795 11.9317 17.642C11.8257 17.561 11.1837 16.519 10.8767 16.009C10.0517 14.352 10.8767 13.248 11.4867 12.945Z" fill="url(#paint19_radial_112_11353)"/>
<path d="M11.4867 12.945C12.8697 12.257 13.8867 13.031 14.2067 13.453C15.2057 14.96 16.3967 16.673 16.9467 17.585C18.4167 20.015 15.4087 21.069 15.4087 21.069C12.6427 17.952 12.1307 17.795 11.9317 17.642C11.8257 17.561 11.1837 16.519 10.8767 16.009C10.0517 14.352 10.8767 13.248 11.4867 12.945Z" fill="url(#paint20_radial_112_11353)"/>
<path d="M11.4867 12.945C12.8697 12.257 13.8867 13.031 14.2067 13.453C15.2057 14.96 16.3967 16.673 16.9467 17.585C18.4167 20.015 15.4087 21.069 15.4087 21.069C12.6427 17.952 12.1307 17.795 11.9317 17.642C11.8257 17.561 11.1837 16.519 10.8767 16.009C10.0517 14.352 10.8767 13.248 11.4867 12.945Z" fill="url(#paint21_radial_112_11353)"/>
<path d="M9.83655 21.073C8.17355 18.81 10.5795 17.251 11.9315 17.643C12.5715 18.038 13.5615 19.029 13.9825 19.476C16.6645 22.091 16.2175 22.898 15.4675 23.786C14.7405 24.388 13.7955 24.871 12.4005 23.786C11.8375 23.348 10.4475 21.904 9.83655 21.073Z" fill="url(#paint22_radial_112_11353)"/>
<path d="M9.83655 21.073C8.17355 18.81 10.5795 17.251 11.9315 17.643C12.5715 18.038 13.5615 19.029 13.9825 19.476C16.6645 22.091 16.2175 22.898 15.4675 23.786C14.7405 24.388 13.7955 24.871 12.4005 23.786C11.8375 23.348 10.4475 21.904 9.83655 21.073Z" fill="url(#paint23_radial_112_11353)"/>
<path d="M9.83655 21.073C8.17355 18.81 10.5795 17.251 11.9315 17.643C12.5715 18.038 13.5615 19.029 13.9825 19.476C16.6645 22.091 16.2175 22.898 15.4675 23.786C14.7405 24.388 13.7955 24.871 12.4005 23.786C11.8375 23.348 10.4475 21.904 9.83655 21.073Z" fill="url(#paint24_radial_112_11353)"/>
<path d="M9.83655 21.073C8.17355 18.81 10.5795 17.251 11.9315 17.643C12.5715 18.038 13.5615 19.029 13.9825 19.476C16.6645 22.091 16.2175 22.898 15.4675 23.786C14.7405 24.388 13.7955 24.871 12.4005 23.786C11.8375 23.348 10.4475 21.904 9.83655 21.073Z" fill="url(#paint25_radial_112_11353)"/>
<path d="M9.83655 21.073C8.17355 18.81 10.5795 17.251 11.9315 17.643C12.5715 18.038 13.5615 19.029 13.9825 19.476C16.6645 22.091 16.2175 22.898 15.4675 23.786C14.7405 24.388 13.7955 24.871 12.4005 23.786C11.8375 23.348 10.4475 21.904 9.83655 21.073Z" fill="url(#paint26_linear_112_11353)"/>
<path d="M20.8485 7.577C22.0655 10.26 23.5585 13.552 24.6785 14.86C24.8985 14.352 24.8745 13.5 25.1245 11.42C25.3505 9.544 26.8985 9.365 27.5635 9.498C29.0335 9.805 29.4805 11.294 29.4315 11.843C29.3535 12.718 29.3495 12.688 29.1895 14.805C28.9545 17.9 30.1495 20.237 30.2595 22.887C30.2595 27.881 25.8825 30.335 22.8195 30.335C20.3685 30.335 17.9155 28.767 16.9965 27.983L12.4005 23.785C11.8375 23.348 10.4475 21.904 9.83655 21.073C8.17355 18.81 10.5795 17.251 11.9315 17.643C11.8255 17.561 11.1835 16.519 10.8765 16.009C10.0515 14.352 10.8765 13.249 11.4865 12.945C12.8695 12.257 13.8865 13.031 14.2065 13.453C14.0835 13.245 13.6995 12.403 13.0805 10.858C12.4615 9.314 13.4585 8.36 14.0345 8.076C15.2845 7.497 16.4725 8.232 16.7695 8.889C16.9155 9.21 17.6995 10.929 18.0415 11.686C17.7835 11.058 17.3175 9.809 17.1525 9.232C16.8245 7.872 17.6135 6.94 18.1135 6.7C18.8095 6.367 20.2605 6.28 20.8335 7.544L20.8485 7.577Z" fill="url(#paint27_radial_112_11353)"/>
<path d="M20.8485 7.577C22.0655 10.26 23.5585 13.552 24.6785 14.86C24.8985 14.352 24.8745 13.5 25.1245 11.42C25.3505 9.544 26.8985 9.365 27.5635 9.498C29.0335 9.805 29.4805 11.294 29.4315 11.843C29.3535 12.718 29.3495 12.688 29.1895 14.805C28.9545 17.9 30.1495 20.237 30.2595 22.887C30.2595 27.881 25.8825 30.335 22.8195 30.335C20.3685 30.335 17.9155 28.767 16.9965 27.983L12.4005 23.785C11.8375 23.348 10.4475 21.904 9.83655 21.073C8.17355 18.81 10.5795 17.251 11.9315 17.643C11.8255 17.561 11.1835 16.519 10.8765 16.009C10.0515 14.352 10.8765 13.249 11.4865 12.945C12.8695 12.257 13.8865 13.031 14.2065 13.453C14.0835 13.245 13.6995 12.403 13.0805 10.858C12.4615 9.314 13.4585 8.36 14.0345 8.076C15.2845 7.497 16.4725 8.232 16.7695 8.889C16.9155 9.21 17.6995 10.929 18.0415 11.686C17.7835 11.058 17.3175 9.809 17.1525 9.232C16.8245 7.872 17.6135 6.94 18.1135 6.7C18.8095 6.367 20.2605 6.28 20.8335 7.544L20.8485 7.577Z" fill="url(#paint28_radial_112_11353)"/>
<path d="M20.8485 7.577C22.0655 10.26 23.5585 13.552 24.6785 14.86C24.8985 14.352 24.8745 13.5 25.1245 11.42C25.3505 9.544 26.8985 9.365 27.5635 9.498C29.0335 9.805 29.4805 11.294 29.4315 11.843C29.3535 12.718 29.3495 12.688 29.1895 14.805C28.9545 17.9 30.1495 20.237 30.2595 22.887C30.2595 27.881 25.8825 30.335 22.8195 30.335C20.3685 30.335 17.9155 28.767 16.9965 27.983L12.4005 23.785C11.8375 23.348 10.4475 21.904 9.83655 21.073C8.17355 18.81 10.5795 17.251 11.9315 17.643C11.8255 17.561 11.1835 16.519 10.8765 16.009C10.0515 14.352 10.8765 13.249 11.4865 12.945C12.8695 12.257 13.8865 13.031 14.2065 13.453C14.0835 13.245 13.6995 12.403 13.0805 10.858C12.4615 9.314 13.4585 8.36 14.0345 8.076C15.2845 7.497 16.4725 8.232 16.7695 8.889C16.9155 9.21 17.6995 10.929 18.0415 11.686C17.7835 11.058 17.3175 9.809 17.1525 9.232C16.8245 7.872 17.6135 6.94 18.1135 6.7C18.8095 6.367 20.2605 6.28 20.8335 7.544L20.8485 7.577Z" fill="url(#paint29_radial_112_11353)"/>
<path d="M22.546 11.168C23.297 12.702 24.047 14.077 24.681 14.83C24.746 15.5 24.804 15.882 24.964 16.46C23.699 15.194 22.474 12.427 22.546 11.168Z" fill="url(#paint30_radial_112_11353)"/>
<path fill-rule="evenodd" clip-rule="evenodd" d="M4.62494 17.4C4.76798 17.4003 4.90508 17.4573 5.00613 17.5585C5.10718 17.6598 5.16394 17.797 5.16394 17.94C5.16394 18.84 5.52794 20.045 6.31294 21.018C7.08294 21.975 8.25294 22.699 9.89294 22.699C10.0359 22.699 10.173 22.7558 10.2741 22.8569C10.3752 22.958 10.4319 23.0951 10.4319 23.238C10.4319 23.381 10.3752 23.5181 10.2741 23.6191C10.173 23.7202 10.0359 23.777 9.89294 23.777C7.89094 23.777 6.42594 22.877 5.47294 21.695C4.53494 20.531 4.08594 19.086 4.08594 17.939C4.0862 17.7961 4.14307 17.6592 4.2441 17.5582C4.34512 17.4571 4.48207 17.4003 4.62494 17.4Z" fill="url(#paint31_radial_112_11353)"/>
<path fill-rule="evenodd" clip-rule="evenodd" d="M4.62494 17.4C4.76798 17.4003 4.90508 17.4573 5.00613 17.5585C5.10718 17.6598 5.16394 17.797 5.16394 17.94C5.16394 18.84 5.52794 20.045 6.31294 21.018C7.08294 21.975 8.25294 22.699 9.89294 22.699C10.0359 22.699 10.173 22.7558 10.2741 22.8569C10.3752 22.958 10.4319 23.0951 10.4319 23.238C10.4319 23.381 10.3752 23.5181 10.2741 23.6191C10.173 23.7202 10.0359 23.777 9.89294 23.777C7.89094 23.777 6.42594 22.877 5.47294 21.695C4.53494 20.531 4.08594 19.086 4.08594 17.939C4.0862 17.7961 4.14307 17.6592 4.2441 17.5582C4.34512 17.4571 4.48207 17.4003 4.62494 17.4Z" fill="url(#paint32_radial_112_11353)"/>
<path fill-rule="evenodd" clip-rule="evenodd" d="M4.62494 17.4C4.76798 17.4003 4.90508 17.4573 5.00613 17.5585C5.10718 17.6598 5.16394 17.797 5.16394 17.94C5.16394 18.84 5.52794 20.045 6.31294 21.018C7.08294 21.975 8.25294 22.699 9.89294 22.699C10.0359 22.699 10.173 22.7558 10.2741 22.8569C10.3752 22.958 10.4319 23.0951 10.4319 23.238C10.4319 23.381 10.3752 23.5181 10.2741 23.6191C10.173 23.7202 10.0359 23.777 9.89294 23.777C7.89094 23.777 6.42594 22.877 5.47294 21.695C4.53494 20.531 4.08594 19.086 4.08594 17.939C4.0862 17.7961 4.14307 17.6592 4.2441 17.5582C4.34512 17.4571 4.48207 17.4003 4.62494 17.4Z" fill="url(#paint33_radial_112_11353)"/>
<path fill-rule="evenodd" clip-rule="evenodd" d="M2.9472 19.323C3.09042 19.323 3.22777 19.3799 3.32904 19.4812C3.43031 19.5824 3.4872 19.7198 3.4872 19.863C3.4872 21.773 4.9172 24.325 7.9232 24.325C8.06615 24.325 8.20325 24.3818 8.30433 24.4829C8.40542 24.584 8.4622 24.721 8.4622 24.864C8.4622 25.0069 8.40542 25.144 8.30433 25.2451C8.20325 25.3462 8.06615 25.403 7.9232 25.403C4.1432 25.403 2.4082 22.173 2.4082 19.863C2.4082 19.7198 2.4651 19.5824 2.56637 19.4812C2.66764 19.3799 2.80399 19.323 2.9472 19.323Z" fill="url(#paint34_radial_112_11353)"/>
<path fill-rule="evenodd" clip-rule="evenodd" d="M2.9472 19.323C3.09042 19.323 3.22777 19.3799 3.32904 19.4812C3.43031 19.5824 3.4872 19.7198 3.4872 19.863C3.4872 21.773 4.9172 24.325 7.9232 24.325C8.06615 24.325 8.20325 24.3818 8.30433 24.4829C8.40542 24.584 8.4622 24.721 8.4622 24.864C8.4622 25.0069 8.40542 25.144 8.30433 25.2451C8.20325 25.3462 8.06615 25.403 7.9232 25.403C4.1432 25.403 2.4082 22.173 2.4082 19.863C2.4082 19.7198 2.4651 19.5824 2.56637 19.4812C2.66764 19.3799 2.80399 19.323 2.9472 19.323Z" fill="url(#paint35_radial_112_11353)"/>
<path fill-rule="evenodd" clip-rule="evenodd" d="M23.1351 10.352C22.9922 10.3525 22.855 10.2964 22.7534 10.196C22.6518 10.0955 22.5942 9.95887 22.5931 9.816C22.5871 8.916 22.2151 7.713 21.4241 6.745C20.6471 5.793 19.4741 5.077 17.8331 5.087C17.6957 5.07957 17.5664 5.02 17.4715 4.92045C17.3765 4.82089 17.3232 4.68886 17.3223 4.5513C17.3214 4.41374 17.373 4.28102 17.4667 4.18024C17.5603 4.07946 17.6889 4.01821 17.8261 4.009C19.8281 3.996 21.2991 4.888 22.2591 6.063C23.2051 7.221 23.6631 8.663 23.6711 9.809C23.6719 9.95205 23.6159 10.0896 23.5154 10.1914C23.4149 10.2932 23.2781 10.3509 23.1351 10.352Z" fill="url(#paint36_radial_112_11353)"/>
<path fill-rule="evenodd" clip-rule="evenodd" d="M23.1351 10.352C22.9922 10.3525 22.855 10.2964 22.7534 10.196C22.6518 10.0955 22.5942 9.95887 22.5931 9.816C22.5871 8.916 22.2151 7.713 21.4241 6.745C20.6471 5.793 19.4741 5.077 17.8331 5.087C17.6957 5.07957 17.5664 5.02 17.4715 4.92045C17.3765 4.82089 17.3232 4.68886 17.3223 4.5513C17.3214 4.41374 17.373 4.28102 17.4667 4.18024C17.5603 4.07946 17.6889 4.01821 17.8261 4.009C19.8281 3.996 21.2991 4.888 22.2591 6.063C23.2051 7.221 23.6631 8.663 23.6711 9.809C23.6719 9.95205 23.6159 10.0896 23.5154 10.1914C23.4149 10.2932 23.2781 10.3509 23.1351 10.352Z" fill="url(#paint37_radial_112_11353)"/>
<path fill-rule="evenodd" clip-rule="evenodd" d="M24.7986 8.419C24.6557 8.41954 24.5184 8.36343 24.4168 8.26296C24.3152 8.1625 24.2576 8.02587 24.2566 7.883C24.2436 5.973 22.7966 3.429 19.7906 3.449C19.6476 3.44993 19.5101 3.39403 19.4084 3.29361C19.3067 3.19318 19.249 3.05645 19.2481 2.9135C19.2471 2.77055 19.303 2.63308 19.4035 2.53135C19.5039 2.42961 19.6406 2.37193 19.7836 2.371C23.5636 2.346 25.3186 5.566 25.3336 7.876C25.3344 8.01888 25.2785 8.15624 25.1782 8.25802C25.078 8.35979 24.9414 8.41768 24.7986 8.419Z" fill="url(#paint38_radial_112_11353)"/>
<path fill-rule="evenodd" clip-rule="evenodd" d="M24.7986 8.419C24.6557 8.41954 24.5184 8.36343 24.4168 8.26296C24.3152 8.1625 24.2576 8.02587 24.2566 7.883C24.2436 5.973 22.7966 3.429 19.7906 3.449C19.6476 3.44993 19.5101 3.39403 19.4084 3.29361C19.3067 3.19318 19.249 3.05645 19.2481 2.9135C19.2471 2.77055 19.303 2.63308 19.4035 2.53135C19.5039 2.42961 19.6406 2.37193 19.7836 2.371C23.5636 2.346 25.3186 5.566 25.3336 7.876C25.3344 8.01888 25.2785 8.15624 25.1782 8.25802C25.078 8.35979 24.9414 8.41768 24.7986 8.419Z" fill="url(#paint39_radial_112_11353)"/>
<g filter="url(#filter0_f_112_11353)">
<path d="M23.0299 14.929C21.0929 15.71 16.7099 18.276 15.4219 23.993" stroke="#FFC339" stroke-linecap="round"/>
</g>
<defs>
<filter id="filter0_f_112_11353" x="13.9219" y="13.4289" width="10.6074" height="12.0642" filterUnits="userSpaceOnUse" color-interpolation-filters="sRGB">
<feFlood flood-opacity="0" result="BackgroundImageFix"/>
<feBlend mode="normal" in="SourceGraphic" in2="BackgroundImageFix" result="shape"/>
<feGaussianBlur stdDeviation="0.5" result="effect1_foregroundBlur_112_11353"/>
</filter>
<radialGradient id="paint0_radial_112_11353" cx="0" cy="0" r="1" gradientUnits="userSpaceOnUse" gradientTransform="translate(19.7671 14.335) rotate(60.1006) scale(21.052 13.753)">
<stop offset="0.003" stop-color="#FFC133"/>
<stop offset="0.698" stop-color="#FFC53F"/>
<stop offset="0.797" stop-color="#FFAD3E"/>
<stop offset="0.945" stop-color="#EC7D58"/>
</radialGradient>
<radialGradient id="paint1_radial_112_11353" cx="0" cy="0" r="1" gradientUnits="userSpaceOnUse" gradientTransform="translate(30.2595 18.96) rotate(-93.012) scale(12.4901 4.78491)">
<stop offset="0.003" stop-color="#FFE849"/>
<stop offset="1" stop-color="#FFE647" stop-opacity="0"/>
</radialGradient>
<radialGradient id="paint2_radial_112_11353" cx="0" cy="0" r="1" gradientUnits="userSpaceOnUse" gradientTransform="translate(28.7598 10.0221) rotate(99.682) scale(6.68903 2.56255)">
<stop offset="0.003" stop-color="#FFE849"/>
<stop offset="1" stop-color="#FFE647" stop-opacity="0"/>
</radialGradient>
<radialGradient id="paint3_radial_112_11353" cx="0" cy="0" r="1" gradientUnits="userSpaceOnUse" gradientTransform="translate(24.6787 14.05) scale(2.70547 10.9717)">
<stop stop-color="#EE9F2C"/>
<stop offset="1" stop-color="#EE9F2C" stop-opacity="0"/>
</radialGradient>
<radialGradient id="paint4_radial_112_11353" cx="0" cy="0" r="1" gradientUnits="userSpaceOnUse" gradientTransform="translate(25.8667 18.304) rotate(-94.0856) scale(4.55371 3.16291)">
<stop stop-color="#FFC93D"/>
<stop offset="1" stop-color="#FFC33A" stop-opacity="0"/>
</radialGradient>
<radialGradient id="paint5_radial_112_11353" cx="0" cy="0" r="1" gradientUnits="userSpaceOnUse" gradientTransform="translate(23.3236 11.391) rotate(151.024) scale(4.78668 9.6155)">
<stop offset="0.563" stop-color="#F09D2E" stop-opacity="0"/>
<stop offset="1" stop-color="#F09D2E"/>
</radialGradient>
<linearGradient id="paint6_linear_112_11353" x1="20.8786" y1="16.295" x2="20.8786" y2="13.71" gradientUnits="userSpaceOnUse">
<stop stop-color="#FFC337"/>
<stop offset="1" stop-color="#FFC337" stop-opacity="0"/>
</linearGradient>
<radialGradient id="paint7_radial_112_11353" cx="0" cy="0" r="1" gradientUnits="userSpaceOnUse" gradientTransform="translate(22.3236 7.585) rotate(-13.4957) scale(3.21374 7.10677)">
<stop stop-color="#FFEC4C"/>
<stop offset="1" stop-color="#FFEC4C" stop-opacity="0"/>
</radialGradient>
<radialGradient id="paint8_radial_112_11353" cx="0" cy="0" r="1" gradientUnits="userSpaceOnUse" gradientTransform="translate(17.0766 6.487) rotate(33.3063) scale(3.13745 2.43249)">
<stop stop-color="#D99F2B"/>
<stop offset="1" stop-color="#D99F2B" stop-opacity="0"/>
</radialGradient>
<linearGradient id="paint9_linear_112_11353" x1="17.5736" y1="12.804" x2="19.1356" y2="12.054" gradientUnits="userSpaceOnUse">
<stop stop-color="#A85300"/>
<stop offset="0.825" stop-color="#A85300" stop-opacity="0"/>
</linearGradient>
<radialGradient id="paint10_radial_112_11353" cx="0" cy="0" r="1" gradientUnits="userSpaceOnUse" gradientTransform="translate(18.8121 12.87) rotate(149.148) scale(4.61415 9.62882)">
<stop offset="0.563" stop-color="#F09D2E" stop-opacity="0"/>
<stop offset="1" stop-color="#F09D2E"/>
</radialGradient>
<linearGradient id="paint11_linear_112_11353" x1="16.4991" y1="17.875" x2="16.4991" y2="15.237" gradientUnits="userSpaceOnUse">
<stop stop-color="#FFC337"/>
<stop offset="1" stop-color="#FFC337" stop-opacity="0"/>
</linearGradient>
<radialGradient id="paint12_radial_112_11353" cx="0" cy="0" r="1" gradientUnits="userSpaceOnUse" gradientTransform="translate(18.2801 9.92901) rotate(-33.8929) scale(3.06214 9.3227)">
<stop stop-color="#FFEC4C"/>
<stop offset="1" stop-color="#FFEC4C" stop-opacity="0"/>
</radialGradient>
<radialGradient id="paint13_radial_112_11353" cx="0" cy="0" r="1" gradientUnits="userSpaceOnUse" gradientTransform="translate(15.9481 13.71) rotate(-24.9048) scale(3.85884 17.6199)">
<stop offset="0.598" stop-color="#F09D2E" stop-opacity="0"/>
<stop offset="1" stop-color="#F09D2E"/>
</radialGradient>
<radialGradient id="paint14_radial_112_11353" cx="0" cy="0" r="1" gradientUnits="userSpaceOnUse" gradientTransform="translate(12.4481 7.86601) rotate(32.6006) scale(3.19011 2.54257)">
<stop stop-color="#D99F2B"/>
<stop offset="1" stop-color="#D99F2B" stop-opacity="0"/>
</radialGradient>
<linearGradient id="paint15_linear_112_11353" x1="13.8541" y1="14.335" x2="14.8941" y2="13.608" gradientUnits="userSpaceOnUse">
<stop stop-color="#A85300"/>
<stop offset="0.825" stop-color="#A85300" stop-opacity="0"/>
</linearGradient>
<radialGradient id="paint16_radial_112_11353" cx="0" cy="0" r="1" gradientUnits="userSpaceOnUse" gradientTransform="translate(16.1337 16.87) rotate(137.351) scale(3.82257 7.48534)">
<stop offset="0.563" stop-color="#F09D2E" stop-opacity="0"/>
<stop offset="1" stop-color="#F09D2E"/>
</radialGradient>
<linearGradient id="paint17_linear_112_11353" x1="13.9407" y1="21.069" x2="13.9407" y2="18.856" gradientUnits="userSpaceOnUse">
<stop stop-color="#FFC337"/>
<stop offset="1" stop-color="#FFC337" stop-opacity="0"/>
</linearGradient>
<radialGradient id="paint18_radial_112_11353" cx="0" cy="0" r="1" gradientUnits="userSpaceOnUse" gradientTransform="translate(15.1967 13.59) rotate(-12.2959) scale(2.91134 6.16703)">
<stop stop-color="#FFEC4C"/>
<stop offset="1" stop-color="#FFEC4C" stop-opacity="0"/>
</radialGradient>
<radialGradient id="paint19_radial_112_11353" cx="0" cy="0" r="1" gradientUnits="userSpaceOnUse" gradientTransform="translate(13.4187 17.575) rotate(-40.217) scale(4.0496 20.7029)">
<stop offset="0.598" stop-color="#F09D2E" stop-opacity="0"/>
<stop offset="1" stop-color="#F09D2E"/>
</radialGradient>
<radialGradient id="paint20_radial_112_11353" cx="0" cy="0" r="1" gradientUnits="userSpaceOnUse" gradientTransform="translate(10.0987 12.671) rotate(29.5035) scale(2.92865 2.20418)">
<stop stop-color="#D99F2B"/>
<stop offset="1" stop-color="#D99F2B" stop-opacity="0"/>
</radialGradient>
<radialGradient id="paint21_radial_112_11353" cx="0" cy="0" r="1" gradientUnits="userSpaceOnUse" gradientTransform="translate(11.6347 18.429) rotate(-45.7639) scale(1.65743 7.48348)">
<stop stop-color="#A85300"/>
<stop offset="0.825" stop-color="#A85300" stop-opacity="0"/>
</radialGradient>
<radialGradient id="paint22_radial_112_11353" cx="0" cy="0" r="1" gradientUnits="userSpaceOnUse" gradientTransform="translate(15.2835 21.218) rotate(143.369) scale(3.75803 7.07093)">
<stop offset="0.563" stop-color="#F09D2E" stop-opacity="0"/>
<stop offset="1" stop-color="#F09D2E"/>
</radialGradient>
<radialGradient id="paint23_radial_112_11353" cx="0" cy="0" r="1" gradientUnits="userSpaceOnUse" gradientTransform="translate(14.2775 18.377) rotate(-9.97762) scale(3.09806 5.38208)">
<stop stop-color="#FFEC4C"/>
<stop offset="1" stop-color="#FFEC4C" stop-opacity="0"/>
</radialGradient>
<radialGradient id="paint24_radial_112_11353" cx="0" cy="0" r="1" gradientUnits="userSpaceOnUse" gradientTransform="translate(12.3698 21.8279) rotate(-34.314) scale(4.01583 19.3881)">
<stop offset="0.598" stop-color="#F09D2E" stop-opacity="0"/>
<stop offset="1" stop-color="#F09D2E"/>
</radialGradient>
<radialGradient id="paint25_radial_112_11353" cx="0" cy="0" r="1" gradientUnits="userSpaceOnUse" gradientTransform="translate(8.80855 17.583) rotate(24.5479) scale(3.0057 1.99452)">
<stop stop-color="#D99F2B"/>
<stop offset="1" stop-color="#D99F2B" stop-opacity="0"/>
</radialGradient>
<linearGradient id="paint26_linear_112_11353" x1="15.4475" y1="28.085" x2="12.9305" y2="22.937" gradientUnits="userSpaceOnUse">
<stop stop-color="#FFC337"/>
<stop offset="1" stop-color="#FFC337" stop-opacity="0"/>
</linearGradient>
<radialGradient id="paint27_radial_112_11353" cx="0" cy="0" r="1" gradientUnits="userSpaceOnUse" gradientTransform="translate(24.4475 13.023) rotate(129.014) scale(17.3747 28.0986)">
<stop offset="0.872" stop-color="#F6814F" stop-opacity="0"/>
<stop offset="1" stop-color="#F7814F"/>
</radialGradient>
<radialGradient id="paint28_radial_112_11353" cx="0" cy="0" r="1" gradientUnits="userSpaceOnUse" gradientTransform="translate(20.8225 13.21) rotate(76.293) scale(18.4633 20.2583)">
<stop offset="0.853" stop-color="#F6814F" stop-opacity="0"/>
<stop offset="1" stop-color="#F7814F"/>
</radialGradient>
<radialGradient id="paint29_radial_112_11353" cx="0" cy="0" r="1" gradientUnits="userSpaceOnUse" gradientTransform="translate(25.0095 8.523) rotate(64.44) scale(3.18689 2.84107)">
<stop stop-color="#D99F2B"/>
<stop offset="1" stop-color="#D99F2B" stop-opacity="0"/>
</radialGradient>
<radialGradient id="paint30_radial_112_11353" cx="0" cy="0" r="1" gradientUnits="userSpaceOnUse" gradientTransform="translate(24.9649 14.6156) rotate(149.254) scale(1.2136 3.75534)">
<stop offset="0.201" stop-color="#B4813D"/>
<stop offset="1" stop-color="#B4813D" stop-opacity="0"/>
</radialGradient>
<radialGradient id="paint31_radial_112_11353" cx="0" cy="0" r="1" gradientUnits="userSpaceOnUse" gradientTransform="translate(5.39194 17.69) rotate(62.071) scale(5.31217 7.87818)">
<stop stop-color="#419FFD"/>
<stop offset="1" stop-color="#4B6DCB"/>
</radialGradient>
<radialGradient id="paint32_radial_112_11353" cx="0" cy="0" r="1" gradientUnits="userSpaceOnUse" gradientTransform="translate(3.88894 18.085) rotate(2.38594) scale(0.750651 1.57975)">
<stop stop-color="#5486C7"/>
<stop offset="1" stop-color="#5486C7" stop-opacity="0"/>
</radialGradient>
<radialGradient id="paint33_radial_112_11353" cx="0" cy="0" r="1" gradientUnits="userSpaceOnUse" gradientTransform="translate(9.51494 22.366) rotate(111.801) scale(0.757294 2.22747)">
<stop stop-color="#5486C7"/>
<stop offset="1" stop-color="#5486C7" stop-opacity="0"/>
</radialGradient>
<radialGradient id="paint34_radial_112_11353" cx="0" cy="0" r="1" gradientUnits="userSpaceOnUse" gradientTransform="translate(5.78119 20.4595) rotate(94.712) scale(4.2017 7.06475)">
<stop stop-color="#419FFD"/>
<stop offset="1" stop-color="#4B6DCB"/>
</radialGradient>
<radialGradient id="paint35_radial_112_11353" cx="0" cy="0" r="1" gradientUnits="userSpaceOnUse" gradientTransform="translate(2.2212 19.976) rotate(2.38521) scale(0.71604 1.50618)">
<stop stop-color="#5486C7"/>
<stop offset="1" stop-color="#5486C7" stop-opacity="0"/>
</radialGradient>
<radialGradient id="paint36_radial_112_11353" cx="0" cy="0" r="1" gradientUnits="userSpaceOnUse" gradientTransform="translate(19.0071 2.846) rotate(60.196) scale(4.46319 6.61911)">
<stop stop-color="#419FFD"/>
<stop offset="1" stop-color="#4B6DCB"/>
</radialGradient>
<radialGradient id="paint37_radial_112_11353" cx="0" cy="0" r="1" gradientUnits="userSpaceOnUse" gradientTransform="translate(17.1681 4.46222) rotate(18.861) scale(0.64211 1.03351)">
<stop stop-color="#4D8AC1"/>
<stop offset="1" stop-color="#4D8AC1" stop-opacity="0"/>
</radialGradient>
<radialGradient id="paint38_radial_112_11353" cx="0" cy="0" r="1" gradientUnits="userSpaceOnUse" gradientTransform="translate(20.8856 1.262) rotate(60.69) scale(5.54462 8.22505)">
<stop stop-color="#419FFD"/>
<stop offset="1" stop-color="#4B6DCB"/>
</radialGradient>
<radialGradient id="paint39_radial_112_11353" cx="0" cy="0" r="1" gradientUnits="userSpaceOnUse" gradientTransform="translate(19.1325 2.80342) rotate(18.853) scale(0.61247 0.98543)">
<stop stop-color="#4D8AC1"/>
<stop offset="1" stop-color="#4D8AC1" stop-opacity="0"/>
</radialGradient>
</defs>
</svg>
